<mxfile host="app.diagrams.net" modified="2022-03-18T13:56:14.774Z" agent="5.0 (Macintosh; Intel Mac OS X 10_15_7) AppleWebKit/537.36 (KHTML, like Gecko) Chrome/99.0.4844.74 Safari/537.36" etag="ogqfrWN794MjUkBezL7X" version="17.1.3" type="github">
  <diagram id="trXY1EZB3bcwkEPWEwqp" name="Page-1">
    <mxGraphModel dx="732" dy="698" grid="1" gridSize="10" guides="1" tooltips="1" connect="1" arrows="1" fold="1" page="1" pageScale="1" pageWidth="827" pageHeight="1169" math="0" shadow="0">
      <root>
        <mxCell id="0" />
        <mxCell id="1" parent="0" />
        <mxCell id="mBA6G_aLc9xEmTnnSkE8-2" value="栈" style="rounded=0;whiteSpace=wrap;html=1;fontSize=16;" vertex="1" parent="1">
          <mxGeometry x="120" y="120" width="120" height="40" as="geometry" />
        </mxCell>
        <mxCell id="mBA6G_aLc9xEmTnnSkE8-3" value="" style="rounded=0;whiteSpace=wrap;html=1;fontSize=16;" vertex="1" parent="1">
          <mxGeometry x="120" y="160" width="120" height="140" as="geometry" />
        </mxCell>
        <mxCell id="mBA6G_aLc9xEmTnnSkE8-4" value="30K" style="rounded=0;whiteSpace=wrap;html=1;fontSize=16;fillColor=#ffe6cc;strokeColor=#d79b00;" vertex="1" parent="1">
          <mxGeometry x="120" y="300" width="120" height="30" as="geometry" />
        </mxCell>
        <mxCell id="mBA6G_aLc9xEmTnnSkE8-5" value="20K" style="rounded=0;whiteSpace=wrap;html=1;fontSize=16;fillColor=#ffe6cc;strokeColor=#d79b00;" vertex="1" parent="1">
          <mxGeometry x="120" y="330" width="120" height="30" as="geometry" />
        </mxCell>
        <mxCell id="mBA6G_aLc9xEmTnnSkE8-6" value="10K" style="rounded=0;whiteSpace=wrap;html=1;fontSize=16;fillColor=#ffe6cc;strokeColor=#d79b00;" vertex="1" parent="1">
          <mxGeometry x="120" y="360" width="120" height="30" as="geometry" />
        </mxCell>
        <mxCell id="mBA6G_aLc9xEmTnnSkE8-7" value="堆" style="rounded=0;whiteSpace=wrap;html=1;fontSize=16;fillColor=#dae8fc;strokeColor=#6c8ebf;" vertex="1" parent="1">
          <mxGeometry x="120" y="390" width="120" height="30" as="geometry" />
        </mxCell>
        <mxCell id="mBA6G_aLc9xEmTnnSkE8-8" value="BSS段" style="rounded=0;whiteSpace=wrap;html=1;fontSize=16;" vertex="1" parent="1">
          <mxGeometry x="120" y="420" width="120" height="30" as="geometry" />
        </mxCell>
        <mxCell id="mBA6G_aLc9xEmTnnSkE8-9" value="内核空间" style="rounded=0;whiteSpace=wrap;html=1;fontSize=16;" vertex="1" parent="1">
          <mxGeometry x="120" y="80" width="120" height="40" as="geometry" />
        </mxCell>
        <mxCell id="mBA6G_aLc9xEmTnnSkE8-10" value="数据段" style="rounded=0;whiteSpace=wrap;html=1;fontSize=16;" vertex="1" parent="1">
          <mxGeometry x="120" y="450" width="120" height="30" as="geometry" />
        </mxCell>
        <mxCell id="mBA6G_aLc9xEmTnnSkE8-11" value="代码段" style="rounded=0;whiteSpace=wrap;html=1;fontSize=16;" vertex="1" parent="1">
          <mxGeometry x="120" y="480" width="120" height="30" as="geometry" />
        </mxCell>
        <mxCell id="mBA6G_aLc9xEmTnnSkE8-12" value="保留区" style="rounded=0;whiteSpace=wrap;html=1;fontSize=16;" vertex="1" parent="1">
          <mxGeometry x="120" y="510" width="120" height="30" as="geometry" />
        </mxCell>
        <mxCell id="mBA6G_aLc9xEmTnnSkE8-13" value="" style="endArrow=classic;html=1;rounded=0;fontSize=16;" edge="1" parent="1">
          <mxGeometry width="50" height="50" relative="1" as="geometry">
            <mxPoint x="179.5" y="160" as="sourcePoint" />
            <mxPoint x="180" y="210" as="targetPoint" />
          </mxGeometry>
        </mxCell>
        <mxCell id="mBA6G_aLc9xEmTnnSkE8-14" value="" style="endArrow=classic;html=1;rounded=0;fontSize=16;" edge="1" parent="1">
          <mxGeometry width="50" height="50" relative="1" as="geometry">
            <mxPoint x="179.5" y="300" as="sourcePoint" />
            <mxPoint x="179.5" y="260" as="targetPoint" />
          </mxGeometry>
        </mxCell>
        <mxCell id="mBA6G_aLc9xEmTnnSkE8-15" value="" style="endArrow=classic;html=1;rounded=0;entryX=1;entryY=0;entryDx=0;entryDy=0;fontSize=16;" edge="1" parent="1" target="mBA6G_aLc9xEmTnnSkE8-4">
          <mxGeometry width="50" height="50" relative="1" as="geometry">
            <mxPoint x="290" y="300" as="sourcePoint" />
            <mxPoint x="430" y="270" as="targetPoint" />
          </mxGeometry>
        </mxCell>
        <mxCell id="mBA6G_aLc9xEmTnnSkE8-16" value="brk" style="text;html=1;align=center;verticalAlign=middle;resizable=0;points=[];autosize=1;strokeColor=none;fillColor=none;fontSize=16;" vertex="1" parent="1">
          <mxGeometry x="285" y="290" width="40" height="20" as="geometry" />
        </mxCell>
        <mxCell id="mBA6G_aLc9xEmTnnSkE8-18" value="高地址" style="text;html=1;align=center;verticalAlign=middle;resizable=0;points=[];autosize=1;strokeColor=none;fillColor=none;fontSize=16;" vertex="1" parent="1">
          <mxGeometry x="250" y="80" width="60" height="20" as="geometry" />
        </mxCell>
        <mxCell id="mBA6G_aLc9xEmTnnSkE8-19" value="低地址" style="text;html=1;align=center;verticalAlign=middle;resizable=0;points=[];autosize=1;strokeColor=none;fillColor=none;fontSize=16;" vertex="1" parent="1">
          <mxGeometry x="240" y="520" width="60" height="20" as="geometry" />
        </mxCell>
        <mxCell id="mBA6G_aLc9xEmTnnSkE8-20" value="栈" style="rounded=0;whiteSpace=wrap;html=1;fontSize=16;" vertex="1" parent="1">
          <mxGeometry x="450" y="120" width="120" height="40" as="geometry" />
        </mxCell>
        <mxCell id="mBA6G_aLc9xEmTnnSkE8-21" value="" style="rounded=0;whiteSpace=wrap;html=1;fontSize=16;" vertex="1" parent="1">
          <mxGeometry x="450" y="160" width="120" height="140" as="geometry" />
        </mxCell>
        <mxCell id="mBA6G_aLc9xEmTnnSkE8-22" value="30K" style="rounded=0;whiteSpace=wrap;html=1;fontSize=16;fillColor=#ffe6cc;strokeColor=#d79b00;" vertex="1" parent="1">
          <mxGeometry x="450" y="300" width="120" height="30" as="geometry" />
        </mxCell>
        <mxCell id="mBA6G_aLc9xEmTnnSkE8-23" value="空闲内存空间 30 K" style="rounded=0;whiteSpace=wrap;html=1;fontSize=16;fillColor=#d5e8d4;strokeColor=#82b366;" vertex="1" parent="1">
          <mxGeometry x="450" y="330" width="120" height="60" as="geometry" />
        </mxCell>
        <mxCell id="mBA6G_aLc9xEmTnnSkE8-25" value="堆" style="rounded=0;whiteSpace=wrap;html=1;fontSize=16;fillColor=#dae8fc;strokeColor=#6c8ebf;" vertex="1" parent="1">
          <mxGeometry x="450" y="390" width="120" height="30" as="geometry" />
        </mxCell>
        <mxCell id="mBA6G_aLc9xEmTnnSkE8-26" value="BSS段" style="rounded=0;whiteSpace=wrap;html=1;fontSize=16;" vertex="1" parent="1">
          <mxGeometry x="450" y="420" width="120" height="30" as="geometry" />
        </mxCell>
        <mxCell id="mBA6G_aLc9xEmTnnSkE8-27" value="内核空间" style="rounded=0;whiteSpace=wrap;html=1;fontSize=16;" vertex="1" parent="1">
          <mxGeometry x="450" y="80" width="120" height="40" as="geometry" />
        </mxCell>
        <mxCell id="mBA6G_aLc9xEmTnnSkE8-28" value="数据段" style="rounded=0;whiteSpace=wrap;html=1;fontSize=16;" vertex="1" parent="1">
          <mxGeometry x="450" y="450" width="120" height="30" as="geometry" />
        </mxCell>
        <mxCell id="mBA6G_aLc9xEmTnnSkE8-29" value="代码段" style="rounded=0;whiteSpace=wrap;html=1;fontSize=16;" vertex="1" parent="1">
          <mxGeometry x="450" y="480" width="120" height="30" as="geometry" />
        </mxCell>
        <mxCell id="mBA6G_aLc9xEmTnnSkE8-30" value="保留区" style="rounded=0;whiteSpace=wrap;html=1;fontSize=16;" vertex="1" parent="1">
          <mxGeometry x="450" y="510" width="120" height="30" as="geometry" />
        </mxCell>
        <mxCell id="mBA6G_aLc9xEmTnnSkE8-31" value="" style="endArrow=classic;html=1;rounded=0;fontSize=16;" edge="1" parent="1">
          <mxGeometry width="50" height="50" relative="1" as="geometry">
            <mxPoint x="509.5" y="160" as="sourcePoint" />
            <mxPoint x="510" y="210" as="targetPoint" />
          </mxGeometry>
        </mxCell>
        <mxCell id="mBA6G_aLc9xEmTnnSkE8-32" value="" style="endArrow=classic;html=1;rounded=0;fontSize=16;" edge="1" parent="1">
          <mxGeometry width="50" height="50" relative="1" as="geometry">
            <mxPoint x="509.5" y="300" as="sourcePoint" />
            <mxPoint x="509.5" y="260" as="targetPoint" />
          </mxGeometry>
        </mxCell>
        <mxCell id="mBA6G_aLc9xEmTnnSkE8-33" value="" style="endArrow=classic;html=1;rounded=0;entryX=1;entryY=0;entryDx=0;entryDy=0;fontSize=16;" edge="1" parent="1" target="mBA6G_aLc9xEmTnnSkE8-22">
          <mxGeometry width="50" height="50" relative="1" as="geometry">
            <mxPoint x="620" y="300" as="sourcePoint" />
            <mxPoint x="760" y="270" as="targetPoint" />
          </mxGeometry>
        </mxCell>
        <mxCell id="mBA6G_aLc9xEmTnnSkE8-34" value="brk" style="text;html=1;align=center;verticalAlign=middle;resizable=0;points=[];autosize=1;strokeColor=none;fillColor=none;fontSize=16;" vertex="1" parent="1">
          <mxGeometry x="615" y="290" width="40" height="20" as="geometry" />
        </mxCell>
        <mxCell id="mBA6G_aLc9xEmTnnSkE8-35" value="高地址" style="text;html=1;align=center;verticalAlign=middle;resizable=0;points=[];autosize=1;strokeColor=none;fillColor=none;fontSize=16;" vertex="1" parent="1">
          <mxGeometry x="580" y="80" width="60" height="20" as="geometry" />
        </mxCell>
        <mxCell id="mBA6G_aLc9xEmTnnSkE8-36" value="低地址" style="text;html=1;align=center;verticalAlign=middle;resizable=0;points=[];autosize=1;strokeColor=none;fillColor=none;fontSize=16;" vertex="1" parent="1">
          <mxGeometry x="570" y="520" width="60" height="20" as="geometry" />
        </mxCell>
        <mxCell id="mBA6G_aLc9xEmTnnSkE8-37" value="" style="shape=flexArrow;endArrow=classic;html=1;rounded=0;fontSize=16;fillColor=#ffcd28;gradientColor=#ffa500;strokeColor=#d79b00;" edge="1" parent="1">
          <mxGeometry width="50" height="50" relative="1" as="geometry">
            <mxPoint x="324" y="374.5" as="sourcePoint" />
            <mxPoint x="414" y="374.5" as="targetPoint" />
          </mxGeometry>
        </mxCell>
        <mxCell id="mBA6G_aLc9xEmTnnSkE8-38" value="释放10K、20K &lt;br&gt;两片内存" style="text;html=1;align=center;verticalAlign=middle;resizable=0;points=[];autosize=1;strokeColor=#36393d;fillColor=#ffff88;fontSize=16;" vertex="1" parent="1">
          <mxGeometry x="310" y="320" width="120" height="40" as="geometry" />
        </mxCell>
      </root>
    </mxGraphModel>
  </diagram>
</mxfile>
